<?xml version="1.0" standalone="no"?>
<!DOCTYPE svg PUBLIC "-//W3C//DTD SVG 20010904//EN"
 "http://www.w3.org/TR/2001/REC-SVG-20010904/DTD/svg10.dtd">
<svg version="1.0" xmlns="http://www.w3.org/2000/svg"
 width="586.000000pt" height="426.000000pt" viewBox="0 0 586.000000 426.000000"
 preserveAspectRatio="xMidYMid meet">

<g transform="translate(0.000000,426.000000) scale(0.100000,-0.100000)"
fill="#000000" stroke="none">
<path d="M2600 3390 c0 -7 -7 -10 -15 -6 -8 3 -15 1 -15 -5 0 -6 -5 -7 -12 -3
-7 4 -8 3 -4 -4 4 -7 16 -12 28 -12 14 0 18 -5 14 -16 -4 -10 -2 -13 6 -8 8 5
9 2 5 -10 -6 -14 -3 -15 13 -6 11 6 20 7 20 3 0 -4 6 1 13 10 16 21 115 29
102 8 -3 -6 4 -9 15 -8 11 1 20 6 20 12 0 5 4 4 9 -4 5 -7 21 -13 35 -13 19 0
26 -5 22 -14 -4 -10 1 -11 20 -4 19 8 26 6 31 -6 4 -11 13 -14 29 -10 14 4 24
2 24 -4 0 -5 7 -10 15 -10 8 0 15 -5 15 -11 0 -6 7 -8 16 -5 8 3 12 2 9 -4 -3
-6 1 -10 10 -10 9 0 35 -10 58 -22 23 -12 44 -23 47 -23 20 -6 59 -26 71 -37
8 -7 32 -19 54 -26 60 -20 109 -44 117 -56 5 -7 8 -7 8 -1 0 25 -228 163 -244
148 -3 -3 -6 -1 -6 5 0 6 -17 14 -37 18 -21 3 -51 16 -68 28 -37 27 -124 68
-190 90 -67 22 -235 34 -235 16z"/>
<path d="M2891 3294 c0 -11 3 -14 6 -6 3 7 2 16 -1 19 -3 4 -6 -2 -5 -13z"/>
<path d="M2097 3195 c-32 -17 -66 -38 -76 -46 -10 -8 -24 -18 -33 -24 -107
-70 -120 -85 -75 -85 12 0 33 -3 46 -7 17 -4 22 -3 17 5 -4 7 9 3 28 -9 l36
-21 9 26 c6 14 28 37 51 52 32 21 38 30 29 40 -6 8 -17 14 -24 14 -7 0 -15 7
-19 15 -4 12 2 15 28 15 27 0 34 4 32 18 -2 9 2 20 8 24 6 4 8 9 6 11 -3 2
-31 -10 -63 -28z"/>
<path d="M3091 3114 c0 -11 3 -14 6 -6 3 7 2 16 -1 19 -3 4 -6 -2 -5 -13z"/>
<path d="M3110 3115 c0 -9 6 -12 15 -9 9 4 19 -3 26 -19 7 -15 17 -23 25 -20
8 3 11 9 8 14 -3 5 -9 7 -14 4 -8 -5 -25 23 -22 38 1 4 -7 7 -18 7 -11 0 -20
-7 -20 -15z"/>
<path d="M3095 3079 c-10 -15 3 -25 16 -12 7 7 7 13 1 17 -6 3 -14 1 -17 -5z"/>
<path d="M3130 3052 c0 -4 5 -13 12 -20 9 -9 9 -12 -2 -13 -8 -1 -18 -1 -22 0
-15 2 -8 -17 8 -23 8 -3 12 -2 9 4 -3 6 0 10 9 10 8 0 17 6 19 13 4 9 6 9 6
-1 1 -16 21 -6 21 10 0 6 -3 8 -7 5 -3 -4 -17 0 -30 8 -13 9 -23 12 -23 7z"/>
<path d="M3221 3049 c7 -4 18 -5 25 -2 6 2 15 -1 19 -7 3 -6 3 -10 -2 -9 -4 1
-16 -1 -25 -5 -15 -7 -15 -9 4 -28 16 -16 18 -22 7 -29 -8 -5 -22 -6 -31 -3
-36 11 -58 13 -53 3 4 -5 10 -7 14 -5 4 3 13 1 21 -5 13 -7 13 -9 0 -9 -13 0
-13 -1 0 -10 12 -8 12 -10 -5 -10 -17 0 -18 -2 -5 -11 13 -9 13 -10 0 -6 -8 2
-14 11 -12 19 1 10 -7 17 -23 20 -16 4 -22 1 -17 -6 3 -6 5 -19 3 -29 -1 -10
6 -25 16 -32 17 -13 17 -14 1 -20 -10 -4 -18 -12 -18 -18 0 -7 4 -7 12 1 7 7
21 12 33 12 16 0 17 -2 5 -9 -8 -6 -18 -7 -22 -5 -5 3 -11 -2 -14 -10 -3 -9
-10 -13 -15 -10 -5 3 -9 1 -9 -4 0 -6 -6 -12 -14 -15 -11 -4 -13 1 -11 23 2
16 0 32 -6 35 -5 4 -9 -1 -9 -9 0 -9 -4 -16 -10 -16 -5 0 -10 -9 -10 -20 0
-11 5 -20 12 -20 6 0 8 -3 4 -7 -4 -5 -14 1 -22 11 -12 17 -14 18 -14 3 0 -9
-4 -17 -10 -17 -5 0 -10 -8 -10 -17 0 -15 2 -14 15 3 8 10 15 14 15 7 0 -7 7
-10 15 -7 11 5 13 2 9 -9 -3 -9 -13 -14 -22 -11 -14 4 -13 3 1 -6 18 -11 18
-13 -3 -35 -15 -16 -20 -30 -16 -43 5 -15 1 -22 -14 -27 -11 -3 -20 -14 -20
-23 0 -13 2 -14 9 -3 6 9 11 10 15 2 4 -6 4 -11 0 -11 -3 0 -1 -6 5 -14 10
-12 8 -13 -11 -9 -13 4 -26 10 -29 16 -4 5 -9 5 -13 -2 -4 -6 -2 -11 4 -11 6
0 9 -4 6 -9 -4 -5 3 -7 14 -4 12 3 20 0 20 -6 0 -7 4 -10 9 -6 6 3 9 -4 8 -15
-1 -11 -9 -23 -19 -26 -10 -3 -18 -9 -18 -13 0 -10 86 33 109 53 21 19 74 17
59 -2 -8 -9 -13 -10 -18 -2 -4 7 -14 4 -28 -8 -28 -24 -29 -38 -2 -19 23 16
70 11 70 -7 0 -6 5 -4 10 4 13 20 12 33 -2 24 -6 -4 -8 -3 -5 4 4 5 18 9 32 7
17 -1 25 3 25 14 1 17 23 51 34 51 4 0 4 -5 0 -12 -5 -8 -2 -9 10 -5 11 4 15
3 11 -4 -4 -6 -13 -8 -20 -5 -7 2 -16 -2 -19 -11 -4 -11 -2 -14 9 -10 8 4 17
1 21 -5 4 -7 3 -8 -4 -4 -7 4 -12 2 -12 -3 0 -6 -5 -10 -11 -9 -6 2 -14 -3
-17 -11 -3 -10 0 -12 13 -7 15 5 16 4 6 -8 -10 -12 -16 -13 -26 -3 -7 7 -11
15 -8 20 2 4 0 7 -5 7 -6 0 -12 -7 -16 -15 -3 -9 0 -15 10 -15 8 0 12 -5 9
-10 -4 -6 -10 -8 -14 -6 -4 3 -13 -5 -20 -17 -8 -12 -10 -19 -6 -15 4 4 16 3
25 -2 13 -7 22 -5 31 8 12 15 12 15 -1 5 -9 -7 -21 -8 -29 -4 -13 9 4 20 42
28 10 2 28 8 39 14 17 9 18 13 7 20 -10 6 -8 9 9 9 20 0 21 -3 12 -20 -6 -11
-18 -20 -26 -20 -8 0 -12 -5 -9 -10 4 -7 11 -8 18 -2 7 6 29 12 50 15 21 3 41
8 45 12 4 4 -10 5 -30 2 -31 -5 -35 -3 -25 7 6 8 19 11 27 8 8 -3 12 -2 8 3
-7 8 50 65 65 65 5 0 5 5 2 10 -4 6 -10 8 -14 6 -4 -3 -8 1 -8 7 0 9 10 12 30
9 21 -3 25 -7 16 -13 -10 -6 -8 -9 9 -9 13 0 20 -4 17 -10 -3 -5 1 -10 9 -10
9 0 16 3 16 8 0 9 -39 35 -64 42 -18 5 -34 50 -18 50 17 0 22 -13 11 -27 -7
-8 -8 -13 -1 -13 20 0 21 30 2 43 -11 8 -17 17 -12 22 4 4 0 6 -8 3 -51 -18
-62 -20 -56 -9 4 6 14 11 23 11 9 0 14 3 10 6 -3 4 -14 3 -24 -1 -10 -4 -31
-8 -48 -7 -16 0 -22 -2 -12 -4 10 -3 14 -10 10 -17 -4 -7 2 -5 12 3 17 14 18
14 6 -7 -6 -13 -19 -23 -28 -23 -9 0 -13 3 -10 6 3 4 2 15 -4 25 -7 15 -6 21
5 25 14 5 -5 28 -80 93 -8 7 -13 16 -10 19 4 3 13 -3 22 -14 15 -18 15 -18 5
3 -6 12 -16 23 -22 25 -7 2 4 4 24 4 20 0 34 -2 32 -4 -2 -3 6 -13 18 -23 12
-10 18 -18 14 -19 -4 0 -3 -9 3 -20 6 -11 18 -19 28 -19 15 1 15 2 -1 6 -18 5
-18 5 0 19 16 13 16 13 1 8 -12 -4 -18 -1 -18 10 0 9 3 15 8 15 21 -4 32 2 26
14 -6 9 -5 9 8 0 8 -7 17 -11 20 -8 2 3 5 -1 5 -9 0 -9 -7 -12 -16 -8 -20 7
-14 1 23 -22 16 -10 25 -13 22 -7 -4 6 0 11 9 11 9 0 14 -3 12 -7 -6 -9 13
-28 28 -28 16 -1 65 -28 65 -36 0 -4 7 -10 16 -13 14 -5 15 -4 4 9 -10 12 -10
15 3 15 19 0 16 -28 -4 -41 -11 -7 -9 -9 9 -9 12 0 22 -4 22 -9 0 -4 17 -7 38
-6 20 2 29 1 20 -2 -26 -7 -22 -20 6 -25 19 -4 24 -1 21 13 -2 10 0 21 5 24
23 14 -36 106 -63 97 -5 -1 -6 2 -2 8 3 5 -1 10 -9 10 -9 0 -16 -4 -16 -10 0
-5 -5 -10 -12 -10 -6 0 -1 11 13 26 18 20 20 24 5 18 -13 -5 -25 1 -41 20 -12
14 -27 26 -33 26 -5 0 -12 7 -16 15 -3 8 -13 15 -21 15 -9 0 -14 4 -11 9 3 5
-1 12 -10 15 -8 3 -12 11 -9 16 5 8 12 7 23 -2 15 -12 16 -11 4 4 -8 9 -19 15
-26 12 -7 -3 -19 3 -27 12 -12 16 -12 17 4 11 17 -6 17 -6 0 18 -10 13 -24 27
-32 30 -11 4 -10 1 2 -13 38 -41 10 -44 -31 -3 -23 23 -32 27 -42 18 -8 -8
-11 -8 -7 -1 5 8 -15 11 -64 11 -39 0 -65 -3 -58 -8z m193 -87 c3 -5 -1 -9 -9
-9 -8 0 -15 4 -15 9 0 4 4 8 9 8 6 0 12 -4 15 -8z m30 -7 c3 -8 1 -15 -4 -15
-6 0 -10 7 -10 15 0 8 2 15 4 15 2 0 6 -7 10 -15z m-199 -26 c1 -8 6 -13 13
-12 6 2 9 -4 5 -13 -5 -13 -7 -13 -23 1 -9 8 -17 22 -17 30 0 19 22 13 22 -6z
m291 -147 c-6 -5 -36 23 -36 34 0 4 9 -1 20 -11 11 -10 18 -20 16 -23z m-221
-27 c0 -12 -8 -19 -21 -20 -20 -1 -21 1 -11 22 12 27 32 26 32 -2z m379 -30
c-4 -8 -16 -15 -27 -15 -20 0 -20 0 -1 15 25 19 35 19 28 0z m-269 -21 c-9 -9
-14 -23 -11 -31 4 -11 1 -11 -14 -3 -21 11 -28 40 -9 40 5 0 7 -6 4 -12 -3 -7
0 -5 7 5 7 9 19 17 26 17 10 0 9 -4 -3 -16z m-219 -53 c-15 -15 -24 -30 -21
-33 3 -2 -2 -5 -10 -5 -20 0 -19 6 8 29 12 11 23 24 23 29 3 19 4 20 15 13 7
-4 1 -16 -15 -33z m109 29 c-3 -5 -2 -10 2 -10 5 0 9 -10 10 -22 2 -23 2 -23
-11 1 -13 23 -14 23 -24 5 -6 -10 -12 -15 -12 -10 0 5 7 18 17 28 17 19 28 24
18 8z m-85 -84 c0 -2 -7 -6 -15 -10 -8 -3 -15 -1 -15 4 0 6 7 10 15 10 8 0 15
-2 15 -4z m-150 -26 c-13 -9 -13 -10 0 -10 13 0 13 -1 0 -10 -24 -15 -32 -12
-20 10 6 11 16 20 23 20 7 0 6 -4 -3 -10z"/>
<path d="M3186 3001 c-6 -10 6 -15 27 -12 4 0 7 -3 7 -9 0 -5 5 -10 10 -10 6
0 10 6 10 14 0 8 -8 13 -17 12 -10 -2 -21 1 -24 6 -4 6 -9 6 -13 -1z"/>
<path d="M1827 2983 c-12 -11 -7 -57 7 -75 19 -26 26 -22 26 15 -1 33 -22 72
-33 60z"/>
<path d="M3540 2920 c13 -11 25 -20 28 -20 3 0 -3 9 -13 20 -10 11 -23 20 -28
20 -6 0 0 -9 13 -20z"/>
<path d="M1876 2893 c-6 -14 -5 -15 5 -6 7 7 10 15 7 18 -3 3 -9 -2 -12 -12z"/>
<path d="M3660 2812 c6 -13 14 -21 18 -18 3 4 -2 14 -12 24 -18 16 -18 16 -6
-6z"/>
<path d="M3306 2811 c-3 -5 0 -11 7 -14 8 -3 14 1 14 9 0 16 -13 19 -21 5z"/>
<path d="M3697 2774 c6 -15 23 -19 23 -5 0 5 -7 11 -14 14 -10 4 -13 1 -9 -9z"/>
<path d="M3348 2773 c7 -3 16 -2 19 1 4 3 -2 6 -13 5 -11 0 -14 -3 -6 -6z"/>
<path d="M3019 2723 c-13 -16 -12 -17 4 -4 9 7 17 15 17 17 0 8 -8 3 -21 -13z"/>
<path d="M3759 2726 c13 -16 51 -41 51 -33 0 2 -15 14 -32 27 -21 15 -28 17
-19 6z"/>
<path d="M3713 2708 c-6 -7 -9 -20 -7 -28 2 -8 5 -24 7 -35 2 -12 13 -21 27
-23 18 -3 20 -6 9 -13 -9 -5 1 -6 26 -2 22 4 46 12 53 20 13 12 23 10 47 -9
24 -20 92 -85 108 -104 17 -21 17 -21 -7 -21 -16 0 -23 4 -20 11 3 6 -1 3 -9
-6 -16 -20 -32 -25 -21 -6 4 7 3 8 -5 4 -9 -6 -9 -11 1 -24 11 -13 10 -15 -10
-10 -12 4 -20 2 -16 -3 8 -14 32 -11 41 5 14 25 93 25 93 1 0 -12 -4 -13 -19
-5 -32 17 -34 11 -4 -14 23 -20 29 -22 34 -9 4 12 8 11 20 -8 9 -13 19 -36 22
-51 4 -15 14 -34 23 -43 11 -10 16 -33 16 -66 -1 -46 1 -51 19 -46 13 3 19 1
16 -6 -2 -7 -16 -13 -30 -15 -28 -3 -60 -38 -51 -54 3 -5 -2 -8 -11 -6 -10 2
-20 -3 -23 -11 -3 -8 0 -11 7 -7 6 4 11 2 11 -3 0 -6 7 -11 16 -11 14 0 14 -2
3 -16 -12 -15 -14 -14 -19 1 -5 15 -8 15 -18 2 -7 -8 -10 -22 -6 -31 4 -10 1
-16 -7 -16 -11 0 -11 -3 1 -10 15 -9 13 -11 -12 -14 -7 0 -14 -11 -16 -23 -2
-13 -10 -23 -18 -23 -9 0 -12 5 -8 12 4 7 3 8 -4 4 -6 -4 -8 -14 -5 -24 6 -15
5 -15 -10 -3 -9 7 -26 11 -38 8 -16 -4 -18 -3 -9 8 6 7 7 15 3 18 -12 8 -63
-4 -63 -14 0 -12 7 -11 33 2 20 9 21 9 4 -5 -18 -14 -18 -14 2 -21 23 -7 28
-24 9 -27 -7 0 -17 -2 -23 -2 -5 -1 -16 -5 -22 -9 -9 -6 -11 -3 -7 7 3 9 1 16
-6 16 -6 0 -8 5 -5 11 4 6 -3 5 -14 -3 -16 -10 -18 -14 -7 -16 22 -5 7 -32
-18 -32 -17 0 -18 2 -6 10 9 6 11 10 3 10 -7 0 -10 7 -7 18 4 10 3 13 -3 6 -4
-6 -15 -14 -23 -17 -11 -4 -10 -6 4 -6 20 -1 20 -1 0 -16 -22 -17 -38 -20 -29
-5 9 14 -2 12 -33 -6 -22 -13 -24 -13 -8 -1 31 27 -5 46 -43 22 -9 -5 -12 -4
-8 2 4 6 -11 9 -38 8 -35 -2 -42 1 -37 13 4 11 1 14 -11 9 -11 -4 -17 -1 -17
8 0 8 6 15 13 15 6 1 -1 8 -16 16 -16 9 -31 13 -35 10 -3 -3 0 -6 6 -6 7 0 12
-9 12 -19 0 -18 -3 -19 -30 -10 -25 9 -28 14 -20 29 14 25 13 30 -5 24 -8 -4
-12 -10 -9 -15 9 -15 -4 -10 -76 29 -47 25 -70 43 -70 55 0 11 -5 17 -12 14
-7 -2 -24 4 -37 14 -13 11 -30 19 -38 19 -14 0 -74 28 -83 39 -7 8 -67 41 -75
41 -4 0 -5 -6 -2 -14 4 -9 0 -13 -11 -11 -9 2 -20 4 -24 4 -5 1 -8 6 -8 12 0
8 5 8 15 -1 12 -10 15 -10 15 3 0 9 -7 14 -17 12 -21 -3 -45 13 -38 25 7 11
-22 6 -32 -5 -4 -4 -3 -5 3 -2 17 10 36 -17 27 -38 -5 -14 -3 -16 7 -10 9 6
11 4 6 -4 -5 -7 -11 -10 -14 -7 -3 3 -15 -2 -26 -11 -20 -17 -20 -17 -7 0 15
20 17 19 -65 22 -40 1 -51 -2 -50 -13 3 -20 33 -35 42 -21 5 8 3 9 -6 4 -9 -5
-11 -4 -6 4 4 6 12 9 17 5 6 -3 8 -8 5 -11 -3 -3 -1 -14 5 -24 7 -15 7 -19 -3
-17 -7 2 -12 -3 -10 -11 3 -12 1 -12 -14 0 -9 8 -20 13 -23 11 -3 -2 -7 2 -9
10 -2 9 0 8 8 -2 10 -12 11 -13 8 -1 -3 8 -16 18 -31 22 -16 4 -25 3 -21 -2 3
-5 1 -9 -5 -9 -5 0 -8 -12 -5 -27 3 -19 2 -24 -5 -14 -5 7 -11 9 -13 5 -3 -5
-3 -3 -1 5 2 9 -2 11 -14 6 -13 -4 -12 0 5 15 24 23 23 42 -1 22 -10 -9 -14
-8 -14 3 0 8 4 12 9 9 4 -3 8 2 8 10 0 9 0 19 0 24 0 4 -4 7 -9 7 -5 0 -13 3
-16 7 -4 4 -17 3 -27 -3 -14 -7 -23 -8 -30 -1 -7 7 -6 10 3 9 19 -3 23 16 4
19 -8 1 -15 -1 -15 -5 0 -4 -7 -16 -16 -27 -15 -18 -15 -18 -5 3 8 16 8 24 -1
29 -7 4 -8 3 -4 -4 4 -7 3 -12 -3 -12 -12 0 -8 -24 7 -43 16 -19 5 -47 -19
-47 -21 0 -27 -29 -6 -31 6 -1 18 -2 26 -3 21 -2 24 -21 6 -36 -12 -10 -18
-10 -30 0 -13 11 -14 10 -9 -4 3 -9 10 -16 14 -16 4 0 6 -11 5 -25 -3 -20 1
-25 20 -25 13 0 26 6 28 13 3 7 6 4 6 -7 1 -12 6 -16 15 -13 10 4 13 1 9 -8
-3 -8 -9 -13 -13 -10 -5 3 -15 -2 -23 -10 -18 -17 -31 -20 -22 -5 3 6 -1 10
-9 10 -15 0 -15 -16 0 -55 7 -18 6 -19 -9 -6 -15 12 -17 12 -11 -3 3 -9 1 -16
-5 -16 -6 0 -11 -7 -11 -15 0 -8 -4 -15 -10 -15 -5 0 -10 5 -10 11 0 5 -4 8
-9 5 -10 -7 -9 13 2 31 5 8 0 9 -15 5 -13 -3 -19 -1 -15 6 5 6 -2 9 -18 8 -15
-2 -22 1 -18 7 4 7 0 8 -13 2 -10 -4 -32 -9 -49 -11 -16 -2 -21 -1 -10 2 11 3
32 10 47 16 l28 10 -26 20 c-15 13 -33 18 -47 15 -20 -5 -19 -4 6 18 27 24 27
25 5 22 -14 -1 -22 3 -21 11 2 6 -2 12 -8 12 -5 0 -7 5 -4 10 3 6 -1 10 -10
10 -9 0 -13 -4 -10 -10 3 -6 -1 -7 -9 -4 -9 3 -14 9 -11 13 2 4 -2 8 -10 8 -8
0 -11 -5 -8 -10 3 -5 0 -8 -8 -5 -8 3 -14 10 -14 16 0 6 -6 17 -13 24 -7 7
-13 9 -12 3 5 -23 -1 -36 -12 -29 -7 4 -8 3 -4 -4 4 -6 13 -9 21 -5 11 3 13 1
9 -10 -3 -8 -13 -13 -23 -10 -22 6 -37 -37 -18 -49 8 -5 5 -8 -8 -8 -17 0 -17
-2 -5 -10 9 -6 11 -10 3 -10 -7 0 -10 -7 -6 -17 4 -10 2 -14 -5 -9 -7 4 -10
-1 -7 -13 2 -11 -2 -24 -8 -30 -8 -6 -12 -36 -12 -80 1 -58 -1 -71 -14 -71
-14 0 -14 -1 -1 -10 8 -5 10 -10 4 -10 -5 0 -10 -12 -10 -27 -1 -99 -5 -123
-17 -123 -8 0 -14 -6 -15 -12 -4 -42 -12 -96 -16 -113 -2 -11 -5 -22 -5 -24
-1 -2 -9 3 -18 10 -15 12 -16 12 -10 -3 9 -25 -5 -22 -21 3 -10 15 -10 19 -1
14 9 -6 10 -1 7 19 -4 17 -1 26 8 26 18 0 27 17 13 26 -8 5 -9 3 -5 -5 6 -8 2
-11 -10 -9 -14 2 -18 -3 -17 -19 2 -16 -1 -21 -13 -16 -8 3 -13 8 -10 10 2 3
-4 20 -14 39 -11 19 -15 33 -9 31 7 -1 14 4 17 12 3 10 0 12 -11 8 -9 -3 -19
-2 -22 3 -7 11 43 70 58 69 8 0 8 -2 0 -6 -7 -2 -13 -9 -13 -14 0 -5 10 -4 23
2 23 11 33 61 10 52 -7 -3 -13 -10 -13 -16 0 -6 -2 -8 -5 -5 -8 7 16 58 27 58
5 0 -3 11 -19 24 -15 13 -32 22 -37 18 -6 -3 -5 -7 2 -10 10 -3 10 -7 0 -20
-11 -13 -10 -15 5 -9 23 8 22 0 -1 -12 -17 -9 -18 -6 -17 27 1 20 3 39 5 42 1
3 2 8 1 13 -3 17 17 5 29 -17 13 -26 40 -43 40 -26 0 6 -5 10 -11 10 -6 0 -9
6 -6 13 2 6 9 11 14 10 5 -1 10 5 10 13 0 7 -4 14 -9 14 -4 0 -8 -4 -8 -10 0
-6 -9 -6 -26 0 -18 7 -30 7 -39 0 -6 -5 -16 -6 -20 -2 -5 4 -5 1 -1 -5 4 -8 2
-13 -6 -13 -8 0 -20 6 -28 13 -12 10 -12 9 -1 -5 8 -10 9 -18 3 -18 -5 0 -13
-7 -16 -16 -6 -14 -4 -15 9 -4 14 12 14 8 -1 -24 -12 -24 -15 -40 -8 -44 6 -4
10 -20 9 -35 -1 -19 2 -26 11 -23 7 3 16 0 20 -6 4 -7 3 -8 -4 -4 -7 4 -12 2
-12 -4 0 -6 -5 -8 -12 -4 -8 5 -7 0 2 -11 8 -10 10 -16 3 -12 -7 4 -13 0 -16
-10 -3 -10 -5 -3 -6 15 0 17 -5 32 -10 32 -5 0 -12 21 -16 46 -5 35 -10 44
-22 40 -8 -3 -16 -6 -17 -6 -1 0 -1 -15 0 -32 2 -18 1 -24 -2 -13 -3 11 -12
25 -19 31 -12 9 -27 72 -29 129 -1 11 -5 26 -9 33 -5 6 -5 12 -1 12 4 0 -1 10
-12 22 -10 12 -14 18 -7 15 8 -5 11 1 9 18 -3 29 -16 47 -16 22 0 -9 -5 -19
-12 -23 -7 -4 -8 -3 -4 4 4 6 2 20 -4 31 -7 14 -7 22 2 27 7 5 8 3 3 -6 -6 -9
-4 -11 5 -5 10 6 10 10 -2 19 -8 6 -17 18 -21 26 -3 8 -6 -4 -6 -28 -1 -41 -2
-42 -18 -26 -11 10 -18 13 -21 6 -8 -26 19 -185 39 -229 13 -26 24 -59 27 -73
2 -14 10 -32 18 -41 8 -8 14 -23 14 -31 0 -27 12 -48 23 -41 5 3 7 2 4 -4 -4
-6 4 -32 17 -59 13 -27 26 -57 29 -67 4 -9 12 -16 19 -15 8 2 14 -9 16 -26 2
-16 8 -34 13 -40 5 -6 18 -22 29 -35 15 -18 20 -20 20 -8 0 9 4 18 9 21 5 4 7
-3 4 -13 -3 -12 4 -29 16 -42 12 -13 21 -27 21 -31 0 -22 154 -178 214 -216
53 -34 100 -72 89 -72 -4 -1 3 -7 16 -14 14 -8 32 -11 40 -8 10 4 12 1 6 -8
-6 -10 -4 -12 9 -7 9 4 15 3 11 -2 -3 -5 8 -16 24 -24 22 -11 31 -12 35 -3 3
7 11 4 22 -9 11 -14 18 -16 21 -8 3 10 11 9 34 -2 16 -9 29 -13 29 -9 0 4 6 2
13 -3 6 -5 26 -9 44 -8 18 1 30 -2 27 -7 -3 -4 12 -9 33 -9 96 -3 108 -5 115
-14 5 -6 8 -5 8 3 0 8 5 10 12 6 17 -11 50 -10 67 1 9 5 12 4 8 -2 -4 -6 0
-14 9 -17 10 -4 13 -2 8 7 -6 9 -4 9 7 2 11 -8 165 -11 229 -4 8 1 24 -2 34
-7 15 -6 17 -4 11 7 -7 12 -6 12 7 1 11 -9 18 -10 23 -2 3 5 11 10 16 10 6 0
7 -4 4 -10 -3 -6 1 -7 9 -4 9 3 13 11 9 18 -4 8 -2 8 7 -1 8 -8 20 -9 36 -3
17 7 24 6 24 -3 0 -8 4 -7 10 3 8 12 10 12 10 1 0 -11 3 -11 15 -1 8 6 20 10
27 7 7 -2 25 2 40 9 19 10 29 11 34 3 4 -6 9 -7 13 -2 3 5 33 19 66 32 167 63
248 113 352 219 46 45 86 94 89 107 3 14 10 25 16 25 5 0 7 13 5 29 -4 20 0
31 10 35 8 3 11 1 8 -4 -10 -16 11 -11 25 6 8 8 9 14 4 13 -21 -4 -28 2 -14
11 13 9 13 11 0 20 -12 7 -12 10 -1 10 7 0 11 6 8 13 -3 7 6 31 20 53 14 21
22 30 19 20 -5 -16 -4 -17 9 -6 8 7 15 19 15 26 0 8 4 14 9 14 5 0 11 10 13
23 2 15 9 21 21 19 13 -2 17 4 17 24 0 15 8 36 18 47 9 11 11 17 5 13 -17 -10
-16 13 2 44 17 29 20 52 4 30 -9 -12 -10 -12 -5 3 3 10 6 25 6 33 0 9 4 13 9
9 6 -3 9 3 9 12 -1 30 6 48 25 55 10 5 17 18 17 35 0 16 9 53 20 83 57 155
-21 334 -232 535 -102 98 -204 191 -247 227 l-33 26 -32 -19 c-23 -14 -42 -17
-65 -13 -23 5 -29 9 -19 15 9 6 9 9 1 9 -6 0 -11 9 -10 20 1 12 8 20 19 20 17
0 23 -12 18 -35 -1 -5 2 -6 6 -2 19 19 11 38 -18 44 -21 4 -26 8 -16 14 8 5 9
9 2 9 -6 0 -16 -6 -21 -12z m472 -527 c3 -5 1 -12 -5 -16 -5 -3 -10 1 -10 9 0
18 6 21 15 7z m35 -1 c0 -5 -2 -10 -4 -10 -3 0 -8 5 -11 10 -3 6 -1 10 4 10 6
0 11 -4 11 -10z m-100 -40 c0 -5 -2 -10 -4 -10 -2 0 -12 -3 -22 -7 -16 -6 -17
-5 -4 10 17 19 30 22 30 7z m-1302 -73 c12 5 14 1 10 -15 -4 -12 -3 -20 1 -18
4 3 12 -4 19 -15 10 -15 10 -19 -2 -19 -8 0 -16 -6 -19 -12 -2 -7 -8 -9 -13
-5 -5 4 -2 12 5 17 21 12 -10 40 -46 41 -27 0 -27 1 -5 10 15 5 21 14 16 21
-5 10 -4 10 6 1 7 -6 19 -9 28 -6z m-318 -112 c10 -12 9 -15 -4 -15 -11 0 -14
5 -10 12 5 8 2 9 -9 5 -10 -3 -17 -2 -17 3 0 15 26 12 40 -5z m-185 -14 c-3
-6 3 -14 12 -20 10 -6 13 -11 7 -11 -15 0 -36 25 -27 33 10 10 15 8 8 -2z
m395 -33 c11 -22 10 -22 -4 -4 -9 11 -16 14 -16 8 0 -7 -4 -12 -10 -12 -5 0
-7 7 -4 15 9 21 22 19 34 -7z m1070 -8 c0 -5 -4 -10 -10 -10 -5 0 -10 5 -10
10 0 6 5 10 10 10 6 0 10 -4 10 -10z m-1702 -139 c-7 -11 -16 -17 -21 -14 -4
3 0 11 10 19 24 18 25 17 11 -5z m612 -11 c-8 -5 -19 -10 -25 -10 -5 0 -3 5 5
10 8 5 20 10 25 10 6 0 3 -5 -5 -10z m-644 -35 c-3 -9 1 -18 10 -22 15 -5 14
-7 -1 -16 -11 -6 -21 -5 -28 2 -8 8 -8 11 2 11 7 0 9 5 6 10 -3 6 -3 15 0 20
10 16 18 12 11 -5z m-166 -35 c-6 -11 -13 -20 -16 -20 -2 0 0 9 6 20 6 11 13
20 16 20 2 0 0 -9 -6 -20z m221 -4 c-9 -11 -9 -15 1 -18 8 -3 4 -10 -12 -18
-22 -12 -24 -11 -13 2 7 8 10 18 6 22 -4 4 -1 11 7 16 21 14 24 12 11 -4z
m-41 -26 c-6 -11 -15 -20 -20 -20 -6 0 -2 9 7 20 10 11 19 20 21 20 1 0 -2 -9
-8 -20z m-161 -17 c0 -11 -3 -13 -6 -5 -2 6 -10 9 -15 6 -7 -4 -8 -2 -4 4 11
18 26 14 25 -5z m150 -87 c9 -10 8 -15 -2 -19 -8 -3 -13 3 -13 14 0 23 0 23
15 5z m-41 -67 c0 -18 3 -50 7 -73 l6 -41 -20 41 c-14 29 -18 52 -14 77 7 44
20 41 21 -4z m107 -78 c3 -5 2 -12 -3 -15 -5 -3 -9 1 -9 9 0 17 3 19 12 6z
m335 -482 c0 -4 -7 -6 -15 -3 -8 4 -15 10 -15 15 0 4 7 6 15 3 8 -4 15 -10 15
-15z"/>
<path d="M3021 2677 c-1 -11 -6 -15 -13 -11 -7 5 -8 3 -3 -5 10 -16 29 2 22
21 -4 8 -6 7 -6 -5z"/>
<path d="M2961 2637 c17 -32 22 -35 14 -8 -6 18 -4 22 6 16 8 -5 10 -4 6 0 -4
5 -14 10 -22 11 -12 2 -13 -2 -4 -19z"/>
<path d="M3480 2611 c-8 -6 -17 -8 -21 -5 -4 2 -11 -1 -15 -7 -4 -8 -3 -9 4
-5 7 4 12 2 12 -3 0 -14 37 -14 45 -1 4 6 -1 7 -12 3 -16 -6 -16 -5 -4 10 15
19 13 21 -9 8z"/>
<path d="M2965 2586 c4 -13 1 -17 -10 -12 -9 3 -13 2 -10 -4 3 -6 12 -10 20
-10 7 0 15 -5 17 -10 2 -7 11 -5 23 4 20 15 20 15 -1 10 -14 -4 -24 1 -32 18
-8 13 -10 15 -7 4z"/>
<path d="M3417 2567 c-4 -10 2 -13 19 -9 13 2 24 8 24 13 0 14 -37 10 -43 -4z"/>
<path d="M3510 2535 c-7 -8 -16 -13 -19 -10 -4 2 -8 -2 -8 -10 0 -18 13 -20
20 -2 4 9 8 8 17 -3 10 -13 11 -13 7 1 -3 9 0 22 6 28 8 8 8 11 0 11 -6 0 -16
-7 -23 -15z"/>
<path d="M3555 2541 c4 -8 2 -17 -6 -22 -9 -6 -10 -9 -2 -9 19 0 27 21 13 33
-10 9 -11 9 -5 -2z"/>
<path d="M2977 2523 c14 -11 14 -13 2 -13 -9 0 -16 -7 -16 -15 0 -23 11 -17
45 27 13 16 11 17 -17 15 -28 -2 -29 -3 -14 -14z"/>
<path d="M3140 2525 c-11 -13 -10 -14 4 -9 9 3 16 10 16 15 0 13 -6 11 -20 -6z"/>
<path d="M3580 2530 c0 -6 7 -10 15 -10 8 0 15 2 15 4 0 2 -7 6 -15 10 -8 3
-15 1 -15 -4z"/>
<path d="M3385 2510 c-19 -8 -19 -9 3 -9 12 -1 22 4 22 9 0 6 -1 10 -2 9 -2 0
-12 -4 -23 -9z"/>
<path d="M3601 2500 c-13 -11 -19 -20 -14 -20 6 0 18 9 28 20 23 25 17 25 -14
0z"/>
<path d="M3157 2495 c3 -8 9 -12 14 -9 12 7 11 11 -5 17 -10 4 -13 1 -9 -8z"/>
<path d="M2920 2489 c0 -5 5 -7 10 -4 6 3 10 8 10 11 0 2 -4 4 -10 4 -5 0 -10
-5 -10 -11z"/>
<path d="M3110 2493 c0 -7 -7 -13 -16 -13 -20 0 -52 -30 -32 -31 7 0 4 -4 -7
-9 -15 -7 -16 -9 -4 -9 18 -1 42 22 34 32 -3 4 -2 5 2 2 3 -3 12 0 20 6 7 6
13 7 13 2 0 -12 -39 -48 -60 -56 -13 -5 -13 -6 1 -6 8 -1 20 4 27 11 8 8 15 8
27 -2 10 -8 15 -9 15 -1 0 6 -4 11 -10 11 -5 0 -10 5 -10 11 0 6 6 9 14 6 10
-4 12 1 9 16 -4 18 -3 19 7 7 8 -10 10 -11 8 -2 -2 8 -7 13 -12 12 -5 -1 -13
4 -17 12 -7 10 -9 10 -9 1z"/>
<path d="M3270 2474 c-41 -28 -49 -37 -26 -28 15 6 17 4 11 -6 -5 -9 -4 -11 4
-6 6 4 9 11 6 16 -8 13 34 33 56 27 10 -3 17 -1 14 3 -3 5 3 11 12 13 10 2 4
4 -14 3 -17 0 -46 -11 -63 -22z"/>
<path d="M3409 2489 c-11 -7 -9 -9 9 -9 26 0 30 -17 5 -23 -11 -3 -7 -5 10 -6
l28 -1 -21 -22 c-11 -12 -20 -25 -20 -30 0 -4 12 5 28 21 15 16 36 31 47 34
15 4 14 5 -7 6 -16 0 -28 6 -28 12 0 6 9 8 23 4 17 -5 19 -4 6 4 -23 15 -64
20 -80 10z"/>
<path d="M3529 2478 l-12 -23 24 20 c13 11 26 21 28 22 2 2 -3 3 -12 3 -9 0
-22 -10 -28 -22z"/>
<path d="M3360 2475 c-11 -13 -10 -14 4 -9 12 5 15 2 10 -10 -3 -9 -1 -16 4
-16 16 0 27 23 14 28 -7 2 -10 8 -6 13 9 15 -13 10 -26 -6z"/>
<path d="M3025 2470 c-3 -6 1 -7 9 -4 18 7 21 14 7 14 -6 0 -13 -4 -16 -10z"/>
<path d="M3557 2464 c-3 -3 -23 -12 -44 -19 -31 -12 -34 -14 -13 -15 20 0 22
-2 10 -10 -12 -8 -9 -10 13 -10 15 0 36 9 47 20 l21 21 -28 -7 c-27 -6 -27 -6
-8 9 11 9 17 17 14 17 -3 0 -8 -3 -12 -6z"/>
<path d="M3006 2434 c-9 -24 -2 -26 12 -4 7 11 8 20 3 20 -5 0 -12 -7 -15 -16z"/>
<path d="M3193 2435 c0 -8 7 -11 16 -7 14 5 14 4 1 -13 -9 -11 -10 -16 -2 -11
6 4 12 3 12 -3 0 -5 9 -9 20 -8 28 2 25 17 -2 17 -14 0 -18 3 -12 8 9 5 9 10
0 17 -18 15 -33 15 -33 0z"/>
<path d="M3973 2425 c0 -8 4 -12 9 -9 5 3 6 10 3 15 -9 13 -12 11 -12 -6z"/>
<path d="M3312 2418 l-23 -12 23 -12 23 -12 -28 -7 c-15 -4 -27 -11 -27 -17 0
-5 -5 -6 -12 -2 -6 4 -8 3 -5 -3 4 -6 0 -16 -8 -23 -8 -7 -15 -18 -15 -24 0
-6 5 -3 11 7 5 9 14 17 20 17 14 0 -9 -40 -35 -62 l-21 -17 22 6 c12 3 25 14
29 25 3 12 9 16 13 10 4 -6 11 -4 21 6 13 14 12 15 -3 9 -24 -9 -21 8 6 27 14
10 16 14 5 10 -41 -14 -14 15 37 40 30 14 55 29 55 32 0 2 -9 0 -19 -6 -21
-11 -54 -3 -45 11 6 11 5 11 -24 -3z m23 -18 c3 -6 -1 -7 -9 -4 -18 7 -21 14
-7 14 6 0 13 -4 16 -10z"/>
<path d="M3020 2400 c-9 -6 -10 -10 -3 -10 6 0 15 5 18 10 8 12 4 12 -15 0z"/>
<path d="M3039 2383 c-13 -17 -13 -17 6 -3 11 8 22 16 24 17 2 2 0 3 -6 3 -6
0 -17 -8 -24 -17z"/>
<path d="M3264 2389 c-9 -16 2 -22 21 -11 15 8 16 10 1 15 -8 3 -18 2 -22 -4z"/>
<path d="M3164 2378 c-3 -4 2 -8 11 -8 9 0 13 -4 10 -10 -10 -17 12 -11 26 7
10 11 10 14 2 9 -7 -4 -13 -3 -13 2 0 11 -29 11 -36 0z"/>
<path d="M3570 2380 c0 -5 7 -7 15 -4 8 4 15 8 15 10 0 2 -7 4 -15 4 -8 0 -15
-4 -15 -10z"/>
<path d="M3863 2383 c-15 -5 -17 -23 -4 -23 5 0 11 7 15 15 3 8 4 15 3 14 -1
0 -8 -3 -14 -6z"/>
<path d="M3340 2365 c-9 -11 -9 -15 -1 -15 7 0 9 -4 6 -10 -3 -5 -2 -10 3 -10
6 0 9 11 8 25 -1 29 0 29 -16 10z"/>
<path d="M3206 2341 c-13 -14 -14 -21 -5 -27 7 -4 10 -3 5 4 -3 6 4 18 16 26
12 9 18 16 12 16 -6 0 -19 -9 -28 -19z"/>
<path d="M3478 2353 c7 -3 16 -2 19 1 4 3 -2 6 -13 5 -11 0 -14 -3 -6 -6z"/>
<path d="M3174 2289 c0 -13 3 -15 13 -7 7 6 13 12 13 13 0 2 -6 5 -13 8 -7 3
-13 -3 -13 -14z"/>
<path d="M2918 2283 c-10 -2 -18 -9 -18 -14 0 -6 8 -5 20 1 11 6 20 13 20 15
0 3 -1 4 -2 4 -2 -1 -11 -3 -20 -6z"/>
<path d="M3325 2259 c0 -18 4 -25 13 -21 7 2 11 10 8 17 -2 7 0 17 5 22 5 5 2
9 -9 9 -12 0 -17 -8 -17 -27z"/>
<path d="M3379 2273 c-12 -16 -12 -17 1 -7 8 6 22 14 30 17 13 5 12 6 -1 6 -9
1 -23 -7 -30 -16z"/>
<path d="M3650 2269 c0 -5 5 -7 10 -4 6 3 10 8 10 11 0 2 -4 4 -10 4 -5 0 -10
-5 -10 -11z"/>
<path d="M3156 2244 c-11 -8 -16 -14 -10 -14 13 0 39 18 34 24 -3 2 -14 -2
-24 -10z"/>
<path d="M3301 2234 c0 -11 3 -14 6 -6 3 7 2 16 -1 19 -3 4 -6 -2 -5 -13z"/>
<path d="M3258 2226 c-19 -14 -26 -42 -8 -31 9 6 34 45 28 45 -2 0 -11 -7 -20
-14z"/>
<path d="M2920 2220 c0 -5 5 -10 11 -10 5 0 7 5 4 10 -3 6 -8 10 -11 10 -2 0
-4 -4 -4 -10z"/>
<path d="M2970 2220 c11 -7 11 -10 2 -10 -7 0 -10 -5 -6 -11 4 -8 9 -7 15 2 9
15 3 29 -14 29 -7 0 -6 -4 3 -10z"/>
<path d="M3315 2204 c-16 -14 -24 -23 -17 -19 15 8 16 -7 1 -22 -6 -6 -19 -9
-28 -5 -14 5 -13 3 2 -12 9 -10 14 -22 11 -28 -4 -6 1 -6 14 1 15 8 22 8 25
-2 3 -6 6 -2 6 11 1 12 -3 22 -8 22 -17 0 -6 50 12 56 9 3 17 10 17 15 0 13
-1 12 -35 -17z m-5 -64 c0 -5 -4 -10 -10 -10 -5 0 -10 5 -10 10 0 6 5 10 10
10 6 0 10 -4 10 -10z"/>
<path d="M3360 2205 c-11 -13 -10 -15 6 -9 17 5 17 4 3 -8 -15 -12 -15 -15 -1
-28 14 -13 15 -12 10 2 -4 8 -2 20 2 24 5 5 6 15 1 22 -6 10 -10 10 -21 -3z"/>
<path d="M3724 2210 c-30 -12 -37 -27 -24 -47 9 -16 10 -15 5 4 -5 18 -1 25
19 33 14 5 26 12 26 15 0 6 1 6 -26 -5z"/>
<path d="M2797 2194 c3 -8 11 -14 19 -14 21 0 17 17 -5 23 -14 3 -18 1 -14 -9z"/>
<path d="M3728 2149 c-4 -10 1 -15 13 -16 10 -1 19 3 19 8 0 6 -4 8 -9 5 -5
-4 -11 -1 -13 6 -3 8 -6 7 -10 -3z"/>
<path d="M3417 2135 c-16 -11 -16 -13 -2 -19 10 -4 14 -2 9 5 -4 8 1 9 17 4
13 -3 20 -3 14 2 -5 5 -12 11 -15 15 -3 3 -13 1 -23 -7z"/>
<path d="M2495 2110 c-4 -6 -10 -8 -14 -6 -4 3 -13 0 -21 -5 -11 -7 -10 -8 8
-6 20 3 56 27 40 27 -4 0 -10 -5 -13 -10z"/>
<path d="M3362 2106 c7 -8 15 -12 17 -11 5 6 -10 25 -20 25 -5 0 -4 -6 3 -14z"/>
<path d="M3680 2090 c-9 -6 -10 -10 -3 -10 6 0 15 5 18 10 8 12 4 12 -15 0z"/>
<path d="M3710 2078 c-9 -20 -9 -21 2 -7 16 20 39 13 31 -9 -7 -19 -4 -17 17
13 8 11 11 17 6 13 -5 -4 -17 -3 -27 2 -14 8 -20 6 -29 -12z"/>
<path d="M2645 2080 c-3 -5 1 -10 9 -10 9 0 16 5 16 10 0 6 -4 10 -9 10 -6 0
-13 -4 -16 -10z"/>
<path d="M3985 2080 c-3 -6 1 -7 9 -4 18 7 21 14 7 14 -6 0 -13 -4 -16 -10z"/>
<path d="M3375 2060 c-3 -5 -1 -10 4 -10 6 0 11 5 11 10 0 6 -2 10 -4 10 -3 0
-8 -4 -11 -10z"/>
<path d="M3655 2059 c-4 -6 -5 -12 -2 -15 2 -3 7 2 10 11 7 17 1 20 -8 4z"/>
<path d="M2075 2050 c3 -5 8 -10 11 -10 2 0 4 5 4 10 0 6 -5 10 -11 10 -5 0
-7 -4 -4 -10z"/>
<path d="M3805 2051 c-3 -5 -2 -12 3 -15 5 -3 9 1 9 9 0 17 -3 19 -12 6z"/>
<path d="M2600 2040 c-8 -5 -12 -12 -9 -15 4 -3 12 1 19 10 14 17 11 19 -10 5z"/>
<path d="M2059 2038 c-7 -24 -4 -40 9 -50 15 -11 15 -11 6 2 -6 8 -10 23 -9
33 3 13 -2 26 -6 15z"/>
<path d="M3586 2025 c-5 -13 -2 -14 17 -4 32 17 33 19 10 19 -12 0 -23 -7 -27
-15z"/>
<path d="M3675 2030 c3 -5 8 -10 11 -10 2 0 4 5 4 10 0 6 -5 10 -11 10 -5 0
-7 -4 -4 -10z"/>
<path d="M3732 2019 c-14 -22 -7 -25 14 -5 8 8 11 17 6 20 -4 2 -13 -4 -20
-15z"/>
<path d="M3615 2010 c-3 -5 -1 -10 4 -10 6 0 11 5 11 10 0 6 -2 10 -4 10 -3 0
-8 -4 -11 -10z"/>
<path d="M3800 2011 c0 -6 4 -13 10 -16 6 -3 7 1 4 9 -7 18 -14 21 -14 7z"/>
<path d="M2580 2000 c0 -5 9 -8 20 -7 21 1 18 10 -5 13 -8 1 -15 -2 -15 -6z"/>
<path d="M2091 1984 c0 -11 3 -14 6 -6 3 7 2 16 -1 19 -3 4 -6 -2 -5 -13z"/>
<path d="M3735 1979 c-11 -16 -1 -19 13 -3 7 8 8 14 3 14 -5 0 -13 -5 -16 -11z"/>
<path d="M2103 1965 c-17 -18 -16 -22 2 -22 8 0 15 9 15 19 0 21 -1 22 -17 3z"/>
<path d="M2510 1976 c0 -2 7 -7 16 -10 8 -3 12 -2 9 4 -6 10 -25 14 -25 6z"/>
<path d="M2056 1962 c-3 -5 1 -9 9 -9 8 0 12 4 9 9 -3 4 -7 8 -9 8 -2 0 -6 -4
-9 -8z"/>
<path d="M3870 1950 c0 -5 5 -10 10 -10 6 0 10 5 10 10 0 6 -4 10 -10 10 -5 0
-10 -4 -10 -10z"/>
<path d="M2060 1925 c-7 -8 -17 -12 -23 -8 -6 3 -7 1 -3 -5 4 -7 2 -12 -3 -12
-6 0 -11 8 -12 18 0 11 -2 12 -6 4 -3 -7 -1 -18 5 -25 5 -7 8 -20 7 -29 -2
-10 1 -18 5 -18 5 0 10 12 12 28 2 18 8 27 20 26 10 -1 15 3 12 10 -3 6 1 3 9
-7 13 -15 15 -16 21 -2 3 8 7 18 8 22 6 13 -41 12 -52 -2z"/>
<path d="M2106 1895 c-3 -8 -12 -12 -20 -9 -8 3 -19 -3 -25 -15 -14 -25 -14
-38 0 -24 18 18 47 4 43 -20 -4 -21 -4 -21 5 -2 5 11 10 15 10 9 1 -7 8 -15
17 -18 15 -6 15 -4 3 11 -8 10 -21 23 -29 30 -8 7 -10 13 -5 13 6 0 11 9 12
20 2 24 -3 26 -11 5z"/>
<path d="M2050 1806 c4 -4 16 -4 26 2 16 9 14 10 -8 9 -15 -1 -23 -6 -18 -11z"/>
<path d="M1950 1709 c0 -5 5 -7 10 -4 6 3 10 8 10 11 0 2 -4 4 -10 4 -5 0 -10
-5 -10 -11z"/>
<path d="M2085 1600 c-2 -4 4 -15 15 -25 18 -16 18 -19 3 -30 -11 -9 -13 -14
-4 -19 6 -4 9 -12 6 -17 -10 -16 6 -10 33 12 25 20 25 21 5 15 -26 -8 -32 8
-8 18 12 4 13 10 6 25 -6 10 -8 21 -5 23 3 3 -7 6 -21 6 -14 0 -27 -4 -30 -8z
m50 -30 c11 -17 -5 -11 -28 11 l-22 21 22 -11 c12 -6 25 -16 28 -21z"/>
<path d="M2154 1465 c1 -8 7 -20 13 -26 9 -9 11 -7 8 7 -2 11 -4 22 -4 27 -1
4 -5 7 -10 7 -5 0 -8 -7 -7 -15z"/>
<path d="M4202 1408 c-7 -7 -12 -18 -12 -25 0 -7 -3 -13 -8 -13 -4 0 -13 -10
-21 -22 -14 -22 -13 -22 5 -8 26 20 42 41 47 63 6 20 5 21 -11 5z"/>
</g>
</svg>
